<?xml version="1.0" encoding="UTF-8"?>
<svg width="58px" height="58px" viewBox="0 0 58 58" version="1.1" xmlns="http://www.w3.org/2000/svg" xmlns:xlink="http://www.w3.org/1999/xlink">
    <!-- Generator: Sketch 63.1 (92452) - https://sketch.com -->
    <title>twitter</title>
    <desc>Created with Sketch.</desc>
    <defs>
        <rect id="path-1" x="0" y="0" width="38" height="38" rx="19"></rect>
        <filter x="-39.5%" y="-39.5%" width="178.9%" height="178.9%" filterUnits="objectBoundingBox" id="filter-2">
            <feOffset dx="0" dy="0" in="SourceAlpha" result="shadowOffsetOuter1"></feOffset>
            <feGaussianBlur stdDeviation="5" in="shadowOffsetOuter1" result="shadowBlurOuter1"></feGaussianBlur>
            <feColorMatrix values="0 0 0 0 0   0 0 0 0 0   0 0 0 0 0  0 0 0 0.1 0" type="matrix" in="shadowBlurOuter1"></feColorMatrix>
        </filter>
    </defs>
    <g id="Page-1" stroke="none" stroke-width="1" fill="none" fill-rule="evenodd">
        <g id="Checkout-step-1-Copy-11" transform="translate(-724.000000, -341.000000)">
            <g id="Group-2" transform="translate(492.000000, 351.000000)">
                <g id="twitter" transform="translate(242.000000, 0.000000)">
                    <g id="Rectangle" fill-rule="nonzero">
                        <use fill="black" fill-opacity="1" filter="url(#filter-2)" xlink:href="#path-1"></use>
                        <use fill="#FFFFFF" xlink:href="#path-1"></use>
                    </g>
                    <path d="M31.9414062,12.9253477 C31.056674,13.3181466 30.1083456,13.5818828 29.1113853,13.7015928 C30.1289209,13.0918194 30.9107771,12.1266569 31.2773892,10.9781886 C30.3271905,11.5411999 29.2703751,11.950833 28.1499635,12.1715482 C27.2521379,11.2138676 25.9727365,10.617188 24.5567908,10.617188 C21.8371277,10.617188 19.6318436,12.8206014 19.6318436,15.5402649 C19.6318436,15.9255815 19.6767348,16.3015458 19.7609059,16.6625469 C15.6683176,16.456795 12.0414762,14.4965424 9.61173613,11.5168839 C9.18713933,12.246367 8.94584883,13.0918194 8.94584883,13.9933861 C8.94584883,15.7011251 9.81374689,17.2087241 11.1361688,18.0934563 C10.3281258,18.0672695 9.5687152,17.8446839 8.90469825,17.476201 C8.90469825,17.4967763 8.90469825,17.5173515 8.90469825,17.5379268 C8.90469825,19.9246465 10.603085,21.9129557 12.8532604,22.36748 C12.4417571,22.4797082 12.0059377,22.5395632 11.5570249,22.5395632 C11.2390448,22.5395632 10.9304173,22.5096357 10.6292718,22.4497807 C11.2577497,24.4044217 13.0758465,25.8315904 15.228757,25.8708701 C13.5453341,27.1914221 11.422351,27.9770195 9.11419088,27.9770195 C8.7157809,27.9770195 8.3248528,27.9545739 7.9414062,27.9078123 C10.1186331,29.3069238 12.7073635,30.1205778 15.4887525,30.1205778 C24.5455682,30.1205778 29.4985727,22.6181232 29.4985727,16.1126285 C29.4985727,15.8993951 29.4929612,15.684291 29.4854793,15.4747984 C30.4469006,14.7808539 31.2811304,13.9129558 31.9414062,12.9253477 Z" id="Path" fill="#00ACED"></path>
                </g>
            </g>
        </g>
    </g>
</svg>